HIERARCHY
ROOT Hips
{
	OFFSET 0.000000 0.000000 0.000000
	CHANNELS 6 Xposition Yposition Zposition Xrotation Yrotation Zrotation
	JOINT LeftUpLeg_virtual
	{
		OFFSET 0.000000 0.000000 0.000000
		CHANNELS 3 Xrotation Yrotation Zrotation
		JOINT LeftUpLeg
		{
			OFFSET 15.427100 -6.655098 0.678600
			CHANNELS 3 Xrotation Yrotation Zrotation
			JOINT LeftLeg
			{
				OFFSET 4.081073 -39.591068 13.024000
				CHANNELS 3 Xrotation Yrotation Zrotation
				JOINT LeftFoot
				{
					OFFSET -4.081074 -37.707932 -15.979700
					CHANNELS 3 Xrotation Yrotation Zrotation
					JOINT LeftToeBase
					{
						OFFSET 5.346399 -15.068900 20.645000
						CHANNELS 3 Xrotation Yrotation Zrotation
						JOINT LeftToe_End
						{
							OFFSET 2.754700 0.931300 11.300900
							CHANNELS 3 Xrotation Yrotation Zrotation
							End Site
							{
								OFFSET 0 0 0
							}
						}
					}
				}
			}
		}
	}
	JOINT RightUpLeg_virtual
	{
		OFFSET 0.000000 0.000000 0.000000
		CHANNELS 3 Xrotation Yrotation Zrotation
		JOINT RightUpLeg
		{
			OFFSET -15.569500 -6.655098 0.678600
			CHANNELS 3 Xrotation Yrotation Zrotation
			JOINT RightLeg
			{
				OFFSET -4.081825 -39.591045 13.023800
				CHANNELS 3 Xrotation Yrotation Zrotation
				JOINT RightFoot
				{
					OFFSET 4.081824 -37.707954 -15.979600
					CHANNELS 3 Xrotation Yrotation Zrotation
					JOINT RightToeBase
					{
						OFFSET -5.346400 -15.068900 20.645000
						CHANNELS 3 Xrotation Yrotation Zrotation
						JOINT RightToe_End
						{
							OFFSET -2.754700 0.931300 11.300900
							CHANNELS 3 Xrotation Yrotation Zrotation
							End Site
							{
								OFFSET 0 0 0
							}
						}
					}
				}
			}
		}
	}
	JOINT Spine_virtual
	{
		OFFSET 0.000000 0.000000 0.000000
		CHANNELS 3 Xrotation Yrotation Zrotation
		JOINT Spine
		{
			OFFSET -0.279200 12.230698 -2.892100
			CHANNELS 3 Xrotation Yrotation Zrotation
			JOINT Spine1
			{
				OFFSET -0.232667 10.192268 -1.242267
				CHANNELS 3 Xrotation Yrotation Zrotation
				JOINT Spine1_split
				{
					OFFSET -0.232667 10.192268 -1.242267
					CHANNELS 3 Xrotation Yrotation Zrotation
					JOINT Spine2
					{
						OFFSET -0.232667 10.192268 -1.242267
						CHANNELS 3 Xrotation Yrotation Zrotation
						JOINT Neck_virtual
						{
							OFFSET 0.000000 0.000000 0.000000
							CHANNELS 3 Xrotation Yrotation Zrotation
							JOINT Neck
							{
								OFFSET -0.418800 17.814194 8.416900
								CHANNELS 3 Xrotation Yrotation Zrotation
								JOINT Head
								{
									OFFSET 0.000000 7.031097 3.806800
									CHANNELS 3 Xrotation Yrotation Zrotation
									JOINT HeadTop_End
									{
										OFFSET 0.000000 24.646606 12.978600
										CHANNELS 3 Xrotation Yrotation Zrotation
										End Site
										{
											OFFSET 0 0 0
										}
									}
								}
							}
						}
						JOINT LeftShoulder_virtual
						{
							OFFSET 0.000000 0.000000 0.000000
							CHANNELS 3 Xrotation Yrotation Zrotation
							JOINT LeftShoulder
							{
								OFFSET 8.476499 7.247704 -3.868750
								CHANNELS 3 Xrotation Yrotation Zrotation
								JOINT LeftShoulder_split
								{
									OFFSET 8.476499 7.247704 -3.868750
									CHANNELS 3 Xrotation Yrotation Zrotation
									JOINT LeftArm
									{
										OFFSET 9.308998 -2.777710 0.208600
										CHANNELS 3 Xrotation Yrotation Zrotation
										JOINT LeftForeArm
										{
											OFFSET 29.972298 0.000000 0.000000
											CHANNELS 3 Xrotation Yrotation Zrotation
											JOINT LeftHand
											{
												OFFSET 26.026505 0.000000 0.000000
												CHANNELS 3 Xrotation Yrotation Zrotation
												End Site
												{
													OFFSET 0 0 0
												}
											}
										}
									}
								}
							}
						}
						JOINT RightShoulder_virtual
						{
							OFFSET 0.000000 0.000000 0.000000
							CHANNELS 3 Xrotation Yrotation Zrotation
							JOINT RightShoulder
							{
								OFFSET -7.570500 7.247704 -3.868750
								CHANNELS 3 Xrotation Yrotation Zrotation
								JOINT RightShoulder_split
								{
									OFFSET -7.570500 7.247704 -3.868750
									CHANNELS 3 Xrotation Yrotation Zrotation
									JOINT RightArm
									{
										OFFSET -9.308998 -2.777710 0.208500
										CHANNELS 3 Xrotation Yrotation Zrotation
										JOINT RightForeArm
										{
											OFFSET -29.972300 0.000000 0.000000
											CHANNELS 3 Xrotation Yrotation Zrotation
											JOINT RightHand
											{
												OFFSET -26.026505 0.000000 0.000000
												CHANNELS 3 Xrotation Yrotation Zrotation
												End Site
												{
													OFFSET 0 0 0
												}
											}
										}
									}
								}
							}
						}
					}
				}
			}
		}
	}
}
MOTION
Frames: 4
Frame Time: 0.03333333
-0.316461 95.677658 -0.357800 0.000000 0.000000 0.000000 -6.126877 -17.018398 -1.545071 4.198284 22.827039 4.389243 7.825769 5.093228 0.253600 -11.651189 -0.765257 -1.635697 2.704875 0.560420 -1.172276 0.000000 0.000000 0.000000 -6.183458 -14.628571 -1.430322 -1.786354 -8.083378 -12.602935 7.050815 -10.249647 0.906997 4.349289 -3.463799 6.149160 -4.212422 -0.438682 -0.449690 0.000000 0.000000 0.000000 -6.048531 -17.005131 -2.033079 10.296851 2.528366 0.678764 -4.474102 1.404262 -0.970273 0.858253 0.437263 0.146143 0.000000 0.000000 0.000000 -5.729149 3.788284 -1.329894 5.301820 3.708391 1.299436 1.840948 -6.390417 4.769400 0.000000 0.000000 0.000000 -6.121493 3.849219 -1.592992 2.360628 -13.094148 -2.698794 -2.005899 -2.339827 -0.043842 15.331763 6.031559 -74.982568 3.701499 -10.084084 0.917968 0.000000 0.000000 0.000000 -4.996198 3.987132 -1.462296 1.131026 2.969548 4.765926 -3.081307 -1.041345 -1.369310 0.528811 7.611761 79.987246 2.339343 20.223007 1.697258 0.000000 0.000000 0.000000 
-0.258279 95.560783 -0.354221 0.000000 0.000000 0.000000 -6.158717 -17.270080 -1.563606 3.829567 22.786131 4.388686 8.405566 5.108022 0.391892 -11.760665 -0.808661 -1.600107 2.759037 0.544535 -1.211570 0.000000 0.000000 0.000000 -6.130850 -14.674754 -1.454163 -1.898961 -8.117554 -12.383467 6.851130 -10.331960 0.686499 4.524595 -3.606458 6.274730 -4.376921 -0.388967 -0.456580 0.000000 0.000000 0.000000 -6.142011 -17.102712 -2.095269 10.225742 2.490168 0.704810 -4.531585 1.393985 -1.020734 0.752730 0.518381 0.115796 0.000000 0.000000 0.000000 -5.855780 3.776919 -1.376334 5.373496 3.678663 1.347194 1.851838 -6.387464 4.747177 0.000000 0.000000 0.000000 -6.146909 3.845574 -1.648521 2.331674 -12.991699 -2.850903 -2.022408 -2.230159 -0.057345 15.303437 6.411057 -74.735329 3.514129 -9.980285 0.731076 0.000000 0.000000 0.000000 -4.995767 3.989614 -1.524447 1.113584 3.060700 4.891408 -2.942537 -1.011010 -1.347445 0.576256 7.665619 80.118884 2.420819 20.756960 1.708318 0.000000 0.000000 0.000000 
-0.197014 95.322006 -0.417007 0.000000 0.000000 0.000000 -6.042737 -17.397060 -1.645697 2.967506 22.538171 4.717159 9.594924 4.919229 0.546089 -11.918735 -1.106158 -1.526210 2.714702 0.516443 -1.264502 0.000000 0.000000 0.000000 -6.098162 -14.547656 -1.579626 -2.219912 -8.507746 -12.128395 7.100717 -10.246793 0.480564 4.214543 -3.629317 6.635977 -4.397929 -0.282913 -0.409108 0.000000 0.000000 0.000000 -6.071484 -17.204943 -2.207067 10.095837 2.431592 0.816699 -4.591450 1.375540 -1.096159 0.742301 0.528313 0.127053 0.000000 0.000000 0.000000 -5.979513 3.756549 -1.452663 5.421770 3.646771 1.286396 1.783695 -6.492577 4.919424 0.000000 0.000000 0.000000 -6.158739 3.823736 -1.709690 2.266749 -12.820165 -3.098112 -2.063477 -2.263419 -0.106149 15.288629 6.789866 -74.131240 3.554501 -9.705035 0.620323 0.000000 0.000000 0.000000 -4.991075 3.972245 -1.606648 1.072994 3.078974 5.135683 -2.983300 -1.041189 -1.343217 0.608392 8.258762 79.963921 2.690709 21.332180 1.772691 0.000000 0.000000 0.000000 
-0.084050 94.990402 -0.650383 0.000000 0.000000 0.000000 -5.832510 -17.377063 -1.734597 1.751844 22.196641 5.242924 11.157467 4.629527 0.665059 -12.089131 -1.606293 -1.328743 2.602231 0.473255 -1.277916 0.000000 0.000000 0.000000 -6.092597 -14.248490 -1.736017 -2.732430 -9.194721 -11.929217 7.652120 -9.999871 0.281680 3.472611 -3.567519 7.134869 -4.061610 -0.141273 -0.284683 0.000000 0.000000 0.000000 -5.855081 -17.318057 -2.330481 9.955125 2.357654 0.959165 -4.636485 1.357796 -1.179719 0.843467 0.523403 0.172689 0.000000 0.000000 0.000000 -6.095581 3.732021 -1.535320 5.440354 3.607973 1.151267 1.670938 -6.684447 5.251375 0.000000 0.000000 0.000000 -6.148684 3.791729 -1.761044 2.173478 -12.580706 -3.417782 -2.008282 -2.460212 -0.143399 15.168933 7.002902 -73.312915 3.785109 -9.317756 0.542493 0.000000 0.000000 0.000000 -4.978310 3.941672 -1.689980 1.015425 3.018898 5.478938 -3.158387 -1.068275 -1.359645 0.657534 9.195090 79.497419 3.128176 21.857725 1.901902 0.000000 0.000000 0.000000 
